<svg id="Layer_1" data-name="Layer 1" xmlns="http://www.w3.org/2000/svg" viewBox="0 0 100 100"><title>Artboard 1</title><path d="M45.91,77.73h7.32a1,1,0,0,0,0-2H45.91a1,1,0,0,0,0,2Z"/><path d="M45.91,82.85h7.32a1,1,0,1,0,0-2H45.91a1,1,0,0,0,0,2Z"/><path d="M45.91,88h7.32a1,1,0,0,0,0-2H45.91a1,1,0,0,0,0,2Z"/><path d="M50,25.71h0c-.72,0-1.44,0-2.15.1a1,1,0,0,0,.09,2H48c.65-.06,1.31-.09,2-.09a1,1,0,0,0,0-2Z"/><path d="M43.58,26.6A23.35,23.35,0,0,0,40,28a1,1,0,0,0,.86,1.81,21.29,21.29,0,0,1,3.3-1.25,1,1,0,0,0-.55-1.92Z"/><path d="M35.75,30.55a23.22,23.22,0,0,0-9.12,18.52,1,1,0,0,0,2,0A21.24,21.24,0,0,1,37,32.14a1,1,0,0,0-1.22-1.58Z"/><path d="M89.15,34H86.92a39,39,0,0,0-73.83,0h-.73V14.09a4.26,4.26,0,1,0-3,0V34.2a5.22,5.22,0,0,0-3.73,5V53.63a5.23,5.23,0,0,0,5.23,5.23h1.26L15,84.73a10.81,10.81,0,0,0,10.75,9.62h48.5A10.81,10.81,0,0,0,85,84.73l2.88-25.87h1.26a5.23,5.23,0,0,0,5.23-5.23V39.19A5.23,5.23,0,0,0,89.15,34ZM10.85,8.87A1.26,1.26,0,1,1,9.6,10.12,1.26,1.26,0,0,1,10.85,8.87Zm0,47a2.23,2.23,0,0,1-2.23-2.23V39.19A2.23,2.23,0,0,1,10.85,37h1.34a39,39,0,0,0-1,13.89l.56,5Zm47.71,18a10,10,0,0,0-18-.07A21.74,21.74,0,0,1,20.51,52.1v-3a29.49,29.49,0,0,1,59,0v3A21.83,21.83,0,0,1,58.56,73.88ZM42.83,76.34a7,7,0,0,1,13.47,0l4.24,15H38.59ZM82,84.4a7.81,7.81,0,0,1-7.77,7H63.66l-4.1-14.53A24.83,24.83,0,0,0,82.49,52.1v-3a32.49,32.49,0,0,0-65,0v3A24.74,24.74,0,0,0,39.6,76.75l-4.12,14.6H25.75a7.81,7.81,0,0,1-7.77-7L14.21,50.52a36,36,0,1,1,71.58,0Zm9.35-30.77a2.23,2.23,0,0,1-2.23,2.23h-.93l.56-5a39,39,0,0,0-1-13.89h1.34a2.23,2.23,0,0,1,2.23,2.23Z"/></svg>